<?xml version="1.0" standalone="no"?>
 <!DOCTYPE svg PUBLIC "-//W3C//DTD SVG 1.1//EN" 
 "http://www.w3.org/Graphics/SVG/1.1/DTD/svg11.dtd"> 
<svg xmlns="http://www.w3.org/2000/svg" version="1.1" 
    width="29.7002cm" height="21.0007cm" viewBox="0 0 116930 82680 ">
<title>SVG Picture created as marker-B.Cu.svg date 2015/11/12 22:48:14 </title>
  <desc>Picture generated by PCBNEW </desc>
<g style="fill:#000000; fill-opacity:1;stroke:#000000; stroke-opacity:1;
stroke-linecap:round; stroke-linejoin:round; "
 transform="translate(0 0) scale(1 1)">
</g>
<g style="fill:#000000; fill-opacity:0.0; 
stroke:#000000; stroke-width:-0.000393701; stroke-opacity:1; 
stroke-linecap:round; stroke-linejoin:round;">
</g>
<g style="fill:#000000; fill-opacity:0.0; 
stroke:#000000; stroke-width:59.0551; stroke-opacity:1; 
stroke-linecap:round; stroke-linejoin:round;">
<path d="M72500 43125
L72500 40500
" />
<path d="M42125 43125
L42125 41500
" />
<path d="M42125 43125
L72500 43125
" />
</g>
<g style="fill:#000000; fill-opacity:0.0; 
stroke:#000000; stroke-width:0; stroke-opacity:1; 
stroke-linecap:round; stroke-linejoin:round;">
</g>
<g style="fill:#000000; fill-opacity:1.0; 
stroke:#000000; stroke-width:0; stroke-opacity:1; 
stroke-linecap:round; stroke-linejoin:round;">
<polyline style="fill-rule:evenodd;"
points="44525,42300
43975,42300
43975,41950
44525,41950
44525,42300
" /> 
<polyline style="fill-rule:evenodd;"
points="44525,41550
43975,41550
43975,41200
44525,41200
44525,41550
" /> 
<polyline style="fill-rule:evenodd;"
points="58175,42300
57075,42300
57075,41600
58175,41600
58175,42300
" /> 
<polyline style="fill-rule:evenodd;"
points="58175,40900
57075,40900
57075,40200
58175,40200
58175,40900
" /> 
<polyline style="fill-rule:evenodd;"
points="60650,41300
60100,41300
60100,40950
60650,40950
60650,41300
" /> 
<polyline style="fill-rule:evenodd;"
points="60650,40550
60100,40550
60100,40200
60650,40200
60650,40550
" /> 
<polyline style="fill-rule:evenodd;"
points="69425,42300
68325,42300
68325,41600
69425,41600
69425,42300
" /> 
<polyline style="fill-rule:evenodd;"
points="69425,40900
68325,40900
68325,40200
69425,40200
69425,40900
" /> 
<polyline style="fill-rule:evenodd;"
points="65175,42300
64075,42300
64075,41600
65175,41600
65175,42300
" /> 
<polyline style="fill-rule:evenodd;"
points="65175,40900
64075,40900
64075,40200
65175,40200
65175,40900
" /> 
<polyline style="fill-rule:evenodd;"
points="66800,42300
65700,42300
65700,41600
66800,41600
66800,42300
" /> 
<polyline style="fill-rule:evenodd;"
points="66800,40900
65700,40900
65700,40200
66800,40200
66800,40900
" /> 
<polyline style="fill-rule:evenodd;"
points="44950,40200
46050,40200
46050,40900
44950,40900
44950,40200
" /> 
<polyline style="fill-rule:evenodd;"
points="44950,41600
46050,41600
46050,42300
44950,42300
44950,41600
" /> 
<polyline style="fill-rule:evenodd;"
points="55575,40200
56675,40200
56675,40900
55575,40900
55575,40200
" /> 
<polyline style="fill-rule:evenodd;"
points="55575,41600
56675,41600
56675,42300
55575,42300
55575,41600
" /> 
<polyline style="fill-rule:evenodd;"
points="50550,42300
49450,42300
49450,41600
50550,41600
50550,42300
" /> 
<polyline style="fill-rule:evenodd;"
points="50550,40900
49450,40900
49450,40200
50550,40200
50550,40900
" /> 
</g>
<g style="fill:#000000; fill-opacity:1.0; 
stroke:#000000; stroke-width:787.402; stroke-opacity:1; 
stroke-linecap:round; stroke-linejoin:round;">
</g>
<g style="fill:#000000; fill-opacity:0.0; 
stroke:#000000; stroke-width:787.402; stroke-opacity:1; 
stroke-linecap:round; stroke-linejoin:round;">
<path d="M67781 41375
L67624 41375
" />
<path d="M61875 41375
L61718 41375
" />
</g>
<g style="fill:#000000; fill-opacity:0.0; 
stroke:#000000; stroke-width:0; stroke-opacity:1; 
stroke-linecap:round; stroke-linejoin:round;">
</g>
<g style="fill:#000000; fill-opacity:1.0; 
stroke:#000000; stroke-width:0; stroke-opacity:1; 
stroke-linecap:round; stroke-linejoin:round;">
<polyline style="fill-rule:evenodd;"
points="43617,42163
42632,42163
42632,41336
43617,41336
43617,42163
" /> 
</g>
<g style="fill:#000000; fill-opacity:1.0; 
stroke:#000000; stroke-width:826.772; stroke-opacity:1; 
stroke-linecap:round; stroke-linejoin:round;">
</g>
<g style="fill:#000000; fill-opacity:0.0; 
stroke:#000000; stroke-width:826.772; stroke-opacity:1; 
stroke-linecap:round; stroke-linejoin:round;">
<path d="M43046 40750
L43203 40750
" />
</g>
<g style="fill:#000000; fill-opacity:0.0; 
stroke:#000000; stroke-width:0; stroke-opacity:1; 
stroke-linecap:round; stroke-linejoin:round;">
</g>
<g style="fill:#000000; fill-opacity:1.0; 
stroke:#000000; stroke-width:0; stroke-opacity:1; 
stroke-linecap:round; stroke-linejoin:round;">
<polyline style="fill-rule:evenodd;"
points="72117,42663
71132,42663
71132,41836
72117,41836
72117,42663
" /> 
</g>
<g style="fill:#000000; fill-opacity:1.0; 
stroke:#000000; stroke-width:826.772; stroke-opacity:1; 
stroke-linecap:round; stroke-linejoin:round;">
</g>
<g style="fill:#000000; fill-opacity:0.0; 
stroke:#000000; stroke-width:826.772; stroke-opacity:1; 
stroke-linecap:round; stroke-linejoin:round;">
<path d="M71546 41250
L71703 41250
" />
<path d="M71546 40250
L71703 40250
" />
</g>
<g style="fill:#000000; fill-opacity:0.0; 
stroke:#000000; stroke-width:0; stroke-opacity:1; 
stroke-linecap:round; stroke-linejoin:round;">
</g>
<g style="fill:#000000; fill-opacity:1.0; 
stroke:#000000; stroke-width:0; stroke-opacity:1; 
stroke-linecap:round; stroke-linejoin:round;">
<polyline style="fill-rule:evenodd;"
points="63275,42300
62725,42300
62725,41950
63275,41950
63275,42300
" /> 
<polyline style="fill-rule:evenodd;"
points="63275,41550
62725,41550
62725,41200
63275,41200
63275,41550
" /> 
<polyline style="fill-rule:evenodd;"
points="61450,42900
61450,42350
61800,42350
61800,42900
61450,42900
" /> 
<polyline style="fill-rule:evenodd;"
points="62200,42900
62200,42350
62550,42350
62550,42900
62200,42900
" /> 
<polyline style="fill-rule:evenodd;"
points="48050,41725
48050,42275
47700,42275
47700,41725
48050,41725
" /> 
<polyline style="fill-rule:evenodd;"
points="47300,41725
47300,42275
46950,42275
46950,41725
47300,41725
" /> 
<polyline style="fill-rule:evenodd;"
points="49025,42300
48475,42300
48475,41950
49025,41950
49025,42300
" /> 
<polyline style="fill-rule:evenodd;"
points="49025,41550
48475,41550
48475,41200
49025,41200
49025,41550
" /> 
<polyline style="fill-rule:evenodd;"
points="47150,41300
46600,41300
46600,40950
47150,40950
47150,41300
" /> 
<polyline style="fill-rule:evenodd;"
points="47150,40550
46600,40550
46600,40200
47150,40200
47150,40550
" /> 
<polyline style="fill-rule:evenodd;"
points="55025,41425
54475,41425
54475,41075
55025,41075
55025,41425
" /> 
<polyline style="fill-rule:evenodd;"
points="55025,40675
54475,40675
54475,40325
55025,40325
55025,40675
" /> 
<polyline style="fill-rule:evenodd;"
points="48800,40225
48800,40775
48450,40775
48450,40225
48800,40225
" /> 
<polyline style="fill-rule:evenodd;"
points="48050,40225
48050,40775
47700,40775
47700,40225
48050,40225
" /> 
<polyline style="fill-rule:evenodd;"
points="54163,42407
53336,42407
53336,42092
54163,42092
54163,42407
" /> 
<polyline style="fill-rule:evenodd;"
points="54163,41907
53336,41907
53336,41592
54163,41592
54163,41907
" /> 
<polyline style="fill-rule:evenodd;"
points="54163,41407
53336,41407
53336,41092
54163,41092
54163,41407
" /> 
<polyline style="fill-rule:evenodd;"
points="54163,40907
53336,40907
53336,40592
54163,40592
54163,40907
" /> 
<polyline style="fill-rule:evenodd;"
points="51663,40907
50836,40907
50836,40592
51663,40592
51663,40907
" /> 
<polyline style="fill-rule:evenodd;"
points="51663,41407
50836,41407
50836,41092
51663,41092
51663,41407
" /> 
<polyline style="fill-rule:evenodd;"
points="51663,41907
50836,41907
50836,41592
51663,41592
51663,41907
" /> 
<polyline style="fill-rule:evenodd;"
points="51663,42407
50836,42407
50836,42092
51663,42092
51663,42407
" /> 
<polyline style="fill-rule:evenodd;"
points="59778,42896
59778,42403
60271,42403
60271,42896
59778,42896
" /> 
<polyline style="fill-rule:evenodd;"
points="60478,42896
60478,42403
60971,42403
60971,42896
60478,42896
" /> 
<polyline style="fill-rule:evenodd;"
points="60128,42096
60128,41603
60621,41603
60621,42096
60128,42096
" /> 
<circle cx="70250" cy="40625" r="413.386" /> 
</g>
<g style="fill:#000000; fill-opacity:1.0; 
stroke:#000000; stroke-width:39.3701; stroke-opacity:1; 
stroke-linecap:round; stroke-linejoin:round;">
</g>
<g style="fill:#000000; fill-opacity:1.0; 
stroke:#000000; stroke-width:0; stroke-opacity:1; 
stroke-linecap:round; stroke-linejoin:round;">
<circle cx="59000" cy="40625" r="413.386" /> 
</g>
<g style="fill:#000000; fill-opacity:1.0; 
stroke:#000000; stroke-width:39.3701; stroke-opacity:1; 
stroke-linecap:round; stroke-linejoin:round;">
</g>
<g style="fill:#000000; fill-opacity:1.0; 
stroke:#000000; stroke-width:314.961; stroke-opacity:1; 
stroke-linecap:round; stroke-linejoin:round;">
</g>
<g style="fill:#000000; fill-opacity:0.0; 
stroke:#000000; stroke-width:314.961; stroke-opacity:1; 
stroke-linecap:round; stroke-linejoin:round;">
<path d="M44250 42125
L44250 42500
" />
<path d="M44500 42750
L48750 42750
" />
<path d="M44250 42500
L44500 42750
" />
<path d="M60375 41125
L60000 41125
" />
<path d="M59625 41500
L59625 42750
" />
<path d="M60000 41125
L59625 41500
" />
<path d="M57625 42750
L59625 42750
" />
<path d="M59625 42750
L59925 42750
" />
<path d="M59925 42750
L60025 42650
" />
<path d="M57625 41950
L57625 42750
" />
<path d="M57625 42750
L57450 42750
" />
<path d="M53750 42750
L57450 42750
" />
<path d="M53750 41750
L53750 42250
" />
<path d="M53750 42250
L53750 42750
" />
<path d="M53750 42750
L48750 42750
" />
<path d="M48750 42750
L48750 42500
" />
<path d="M48750 42500
L48750 42125
" />
<path d="M48750 42125
L48000 42125
" />
<path d="M48000 42125
L47875 42000
" />
<path d="M47875 40500
L47500 40500
" />
<path d="M47500 40500
L47375 40375
" />
<path d="M68875 40550
L68875 39750
" />
<path d="M68875 39750
L68875 39875
" />
<path d="M68875 39875
L68875 39750
" />
<path d="M66250 40550
L66250 39750
" />
<path d="M64625 40550
L64625 39750
" />
<path d="M64625 39750
L64625 39875
" />
<path d="M64625 39875
L64625 39750
" />
<path d="M57625 40550
L57625 39750
" />
<path d="M57625 39750
L57625 39875
" />
<path d="M57625 39875
L57625 39750
" />
<path d="M60375 40375
L60375 39750
" />
<path d="M44250 41375
L44250 39750
" />
<path d="M44250 39750
L44250 39875
" />
<path d="M44250 39875
L44250 39750
" />
<path d="M43125 40750
L43125 40375
" />
<path d="M43750 39750
L44250 39750
" />
<path d="M44250 39750
L57625 39750
" />
<path d="M57625 39750
L60375 39750
" />
<path d="M60375 39750
L64625 39750
" />
<path d="M64625 39750
L66250 39750
" />
<path d="M66250 39750
L68875 39750
" />
<path d="M43125 40375
L43750 39750
" />
<path d="M68875 41950
L68277 41950
" />
<path d="M68277 41950
L67702 41375
" />
<path d="M71625 42250
L69175 42250
" />
<path d="M69175 42250
L68875 41950
" />
<path d="M64625 41950
L64625 41625
" />
<path d="M64625 41625
L64375 41375
" />
<path d="M64375 41375
L63000 41375
" />
<path d="M60375 41850
L61322 41850
" />
<path d="M61322 41850
L61797 41375
" />
<path d="M63125 41375
L61797 41375
" />
<path d="M63000 42125
L63000 42625
" />
<path d="M63000 42625
L63125 42625
" />
<path d="M66250 41950
L66250 42375
" />
<path d="M66000 42625
L63125 42625
" />
<path d="M63125 42625
L62375 42625
" />
<path d="M66250 42375
L66000 42625
" />
<path d="M48750 41375
L48625 41375
" />
<path d="M48625 41375
L48500 41250
" />
<path d="M48500 41250
L48750 41375
" />
<path d="M46875 41125
L47000 41125
" />
<path d="M47000 41125
L47125 41250
" />
<path d="M47125 41250
L46875 41125
" />
<path d="M51250 41250
L45750 41250
" />
<path d="M45500 41000
L45500 40550
" />
<path d="M45750 41250
L45500 41000
" />
</g>
<g style="fill:#000000; fill-opacity:0.0; 
stroke:#000000; stroke-width:236.22; stroke-opacity:1; 
stroke-linecap:round; stroke-linejoin:round;">
<path d="M43125 41750
L45300 41750
" />
</g>
<g style="fill:#000000; fill-opacity:0.0; 
stroke:#000000; stroke-width:314.961; stroke-opacity:1; 
stroke-linecap:round; stroke-linejoin:round;">
<path d="M45300 41750
L45500 41950
" />
<path d="M45425 41875
L45500 41950
" />
<path d="M47125 42000
L45550 42000
" />
<path d="M45550 42000
L45500 41950
" />
<path d="M54750 41250
L53750 41250
" />
<path d="M54750 41250
L55425 41250
" />
<path d="M55425 41250
L56125 40550
" />
<path d="M56125 40550
L56125 40625
" />
<path d="M55925 40750
L56125 40550
" />
<path d="M56125 41950
L56125 41875
" />
<path d="M56125 41875
L56750 41250
" />
<path d="M70875 41250
L71625 41250
" />
<path d="M70250 40625
L70875 41250
" />
<path d="M58375 41250
L59000 40625
" />
<path d="M56750 41250
L58375 41250
" />
<path d="M54750 40500
L54625 40500
" />
<path d="M54625 40500
L54375 40250
" />
<path d="M52125 41750
L51250 41750
" />
<path d="M52500 41375
L52125 41750
" />
<path d="M52500 40750
L52500 41375
" />
<path d="M53000 40250
L52500 40750
" />
<path d="M54375 40250
L53000 40250
" />
<path d="M51250 41750
L50200 41750
" />
<path d="M50200 41750
L50000 41950
" />
<path d="M50000 40550
L48675 40550
" />
<path d="M48675 40550
L48625 40500
" />
<path d="M49925 40625
L50000 40550
" />
<path d="M60725 42650
L61600 42650
" />
<path d="M61600 42650
L61625 42625
" />
</g>
<g style="fill:#000000; fill-opacity:1.0; 
stroke:#000000; stroke-width:196.85; stroke-opacity:1; 
stroke-linecap:round; stroke-linejoin:round;">
<polyline style="fill-rule:evenodd;"
points="72401,40191
72374,40197
72353,40211
72353,40190
72291,40190
72333,40090
72331,40079
72218,39851
72026,39685
71786,39604
71684,39658
71684,40190
71691,40190
71691,40276
70876,40276
70853,40222
70722,40090
70916,40090
70958,40190
71565,40190
71565,39658
71463,39604
71223,39685
71031,39851
70918,40079
70916,40090
70722,40090
70653,40021
70392,39913
70109,39913
69847,40021
69661,40206
69661,40153
69625,40066
69558,39999
69471,39963
68993,39963
68934,40022
68934,40276
68815,40276
68815,40022
68756,39963
68278,39963
68191,39999
68124,40066
68088,40153
68088,40276
67036,40276
67036,40153
67000,40066
66933,39999
66846,39963
66368,39963
66309,40022
66309,40276
66190,40276
66190,40022
66131,39963
65653,39963
65566,39999
65499,40066
65463,40153
65463,40276
65411,40276
65411,40153
65375,40066
65308,39999
65221,39963
64743,39963
64684,40022
64684,40276
64565,40276
64565,40022
64506,39963
64028,39963
63941,39999
63874,40066
63838,40153
63838,40276
60866,40276
60886,40256
60886,40153
60850,40066
60783,39999
60696,39963
60493,39963
60434,40022
60434,40276
60315,40276
60315,40022
60256,39963
60053,39963
59966,39999
59899,40066
59863,40153
59863,40256
59883,40276
59626,40276
59603,40222
59403,40021
59142,39913
58859,39913
58597,40021
58411,40206
58411,40153
58375,40066
58308,39999
58221,39963
57743,39963
57684,40022
57684,40490
57691,40490
57691,40609
57684,40609
57684,40616
57565,40616
57565,40609
57558,40609
57558,40490
57565,40490
57565,40022
57506,39963
57028,39963
56941,39999
56916,40024
56893,39987
56793,39919
56675,39895
55575,39895
55464,39916
55362,39981
55294,40081
55277,40166
55243,40112
55143,40044
55025,40020
54790,40020
54697,39927
54549,39828
54375,39794
53000,39794
52825,39828
52766,39868
52677,39927
52677,39927
52177,40427
52078,40575
52044,40750
52044,40776
51183,40776
51183,40690
51190,40690
51190,40415
51309,40415
51309,40690
51840,40690
51899,40631
51899,40545
51863,40458
51797,40392
51710,40356
51368,40356
51309,40415
51190,40415
51131,40356
50854,40356
50854,40200
50848,40168
50848,40000
50840,39961
50818,39929
50785,39908
50750,39901
50578,39901
50550,39895
49450,39895
49418,39901
48125,39901
48086,39909
48054,39931
48033,39964
48028,39988
47993,39988
47934,40047
47934,40401
47815,40401
47815,40047
47756,39988
47653,39988
47566,40024
47499,40091
47463,40178
47463,40381
47483,40401
46354,40401
46354,40200
46345,40153
46363,40153
46363,40256
46422,40315
46815,40315
46815,40022
46934,40022
46934,40315
47327,40315
47386,40256
47386,40153
47350,40066
47283,39999
47196,39963
46993,39963
46934,40022
46815,40022
46756,39963
46553,39963
46466,39999
46399,40066
46363,40153
46345,40153
46333,40089
46268,39987
46168,39919
46050,39895
44950,39895
44839,39916
44737,39981
44669,40081
44645,40200
44645,40900
44651,40931
44651,40996
44571,40963
44368,40963
44309,41022
44309,41294
44190,41294
44190,41022
44131,40963
43928,40963
43841,40999
43774,41066
43769,41079
43756,41070
43831,40920
43833,40909
43791,40809
43184,40809
43184,40816
43065,40816
43065,40809
42458,40809
42416,40909
42418,40920
42493,41071
42420,41118
42352,41218
42344,41259
42250,41197
42223,41191
42223,40590
42416,40590
42458,40690
43065,40690
43065,40158
43184,40158
43184,40690
43791,40690
43833,40590
43831,40579
43718,40351
43526,40185
43286,40104
43184,40158
43065,40158
42963,40104
42723,40185
42531,40351
42418,40579
42416,40590
42223,40590
42223,39473
72401,39473
72401,40191
" /> 
</g>
<g style="fill:#FFFFFF; fill-opacity:1.0; 
stroke:#FFFFFF; stroke-width:196.85; stroke-opacity:1; 
stroke-linecap:round; stroke-linejoin:round;">
</g>
<g style="fill:#FFFFFF; fill-opacity:1.0; 
stroke:#FFFFFF; stroke-width:0; stroke-opacity:1; 
stroke-linecap:round; stroke-linejoin:round;">
<circle cx="70250" cy="40625" r="68.8976" /> 
</g>
<g style="fill:#FFFFFF; fill-opacity:1.0; 
stroke:#FFFFFF; stroke-width:39.3701; stroke-opacity:1; 
stroke-linecap:round; stroke-linejoin:round;">
</g>
<g style="fill:#FFFFFF; fill-opacity:1.0; 
stroke:#FFFFFF; stroke-width:0; stroke-opacity:1; 
stroke-linecap:round; stroke-linejoin:round;">
<circle cx="59000" cy="40625" r="68.8976" /> 
</g>
<g style="fill:#FFFFFF; fill-opacity:1.0; 
stroke:#FFFFFF; stroke-width:39.3701; stroke-opacity:1; 
stroke-linecap:round; stroke-linejoin:round;">
</g>
<g style="fill:#FFFFFF; fill-opacity:1.0; 
stroke:#FFFFFF; stroke-width:0; stroke-opacity:1; 
stroke-linecap:round; stroke-linejoin:round;">
<circle cx="67702.8" cy="41375" r="68.8976" /> 
</g>
<g style="fill:#FFFFFF; fill-opacity:1.0; 
stroke:#FFFFFF; stroke-width:39.3701; stroke-opacity:1; 
stroke-linecap:round; stroke-linejoin:round;">
</g>
<g style="fill:#FFFFFF; fill-opacity:1.0; 
stroke:#FFFFFF; stroke-width:0; stroke-opacity:1; 
stroke-linecap:round; stroke-linejoin:round;">
<circle cx="61797.2" cy="41375" r="68.8976" /> 
</g>
<g style="fill:#FFFFFF; fill-opacity:1.0; 
stroke:#FFFFFF; stroke-width:39.3701; stroke-opacity:1; 
stroke-linecap:round; stroke-linejoin:round;">
</g>
<g style="fill:#FFFFFF; fill-opacity:1.0; 
stroke:#FFFFFF; stroke-width:0; stroke-opacity:1; 
stroke-linecap:round; stroke-linejoin:round;">
<circle cx="43125" cy="41750" r="68.8976" /> 
</g>
<g style="fill:#FFFFFF; fill-opacity:1.0; 
stroke:#FFFFFF; stroke-width:39.3701; stroke-opacity:1; 
stroke-linecap:round; stroke-linejoin:round;">
</g>
<g style="fill:#FFFFFF; fill-opacity:1.0; 
stroke:#FFFFFF; stroke-width:0; stroke-opacity:1; 
stroke-linecap:round; stroke-linejoin:round;">
<circle cx="43125" cy="40750" r="68.8976" /> 
</g>
<g style="fill:#FFFFFF; fill-opacity:1.0; 
stroke:#FFFFFF; stroke-width:39.3701; stroke-opacity:1; 
stroke-linecap:round; stroke-linejoin:round;">
</g>
<g style="fill:#FFFFFF; fill-opacity:1.0; 
stroke:#FFFFFF; stroke-width:0; stroke-opacity:1; 
stroke-linecap:round; stroke-linejoin:round;">
<circle cx="71625" cy="42250" r="68.8976" /> 
</g>
<g style="fill:#FFFFFF; fill-opacity:1.0; 
stroke:#FFFFFF; stroke-width:39.3701; stroke-opacity:1; 
stroke-linecap:round; stroke-linejoin:round;">
</g>
<g style="fill:#FFFFFF; fill-opacity:1.0; 
stroke:#FFFFFF; stroke-width:0; stroke-opacity:1; 
stroke-linecap:round; stroke-linejoin:round;">
<circle cx="71625" cy="41250" r="68.8976" /> 
</g>
<g style="fill:#FFFFFF; fill-opacity:1.0; 
stroke:#FFFFFF; stroke-width:39.3701; stroke-opacity:1; 
stroke-linecap:round; stroke-linejoin:round;">
</g>
<g style="fill:#FFFFFF; fill-opacity:1.0; 
stroke:#FFFFFF; stroke-width:0; stroke-opacity:1; 
stroke-linecap:round; stroke-linejoin:round;">
<circle cx="71625" cy="40250" r="68.8976" /> 
</g>
<g style="fill:#FFFFFF; fill-opacity:1.0; 
stroke:#FFFFFF; stroke-width:39.3701; stroke-opacity:1; 
stroke-linecap:round; stroke-linejoin:round;">
</g>
<g style="fill:#000000; fill-opacity:1.0; 
stroke:#000000; stroke-width:39.3701; stroke-opacity:1; 
stroke-linecap:round; stroke-linejoin:round;">
</g> 
</svg>
