<?xml version="1.0" standalone="no"?>
 <!DOCTYPE svg PUBLIC "-//W3C//DTD SVG 1.1//EN" 
 "http://www.w3.org/Graphics/SVG/1.1/DTD/svg11.dtd"> 
<svg xmlns="http://www.w3.org/2000/svg" version="1.1" 
    width="29.7002cm" height="21.0007cm" viewBox="0 0 116930 82680 ">
<title>SVG Picture created as marker.svg date 2015/09/18 19:47:32 </title>
  <desc>Picture generated by Eeschema-SVG </desc>
<g style="fill:#000000; fill-opacity:1;stroke:#000000; stroke-opacity:1;
stroke-linecap:round; stroke-linejoin:round; "
 transform="translate(0 0) scale(1 1)">
</g>
<g style="fill:#000000; fill-opacity:0.0; 
stroke:#000000; stroke-width:0; stroke-opacity:1; 
stroke-linecap:round; stroke-linejoin:round;">
</g>
<g style="fill:#000000; fill-opacity:0.0; 
stroke:#000000; stroke-width:60; stroke-opacity:1; 
stroke-linecap:round; stroke-linejoin:round;">
<polyline fill="none;"
points="52500,36000
57500,38500
52500,41000
52500,36000
" /> 
<path d="M52500 39500
L49500 39500
" />
<path d="M52800 39530
L53100 39530
" />
<path d="M50890 39020
L50910 39000
L50940 38980
L51040 38980
L51080 39000
L51100 39020
L51110 39060
L51110 39100
L51100 39150
L50870 39380
L51110 39380
" />
<path d="M52500 37500
L49500 37500
" />
<path d="M52800 37530
L53100 37530
" />
<path d="M52950 37680
L52950 37380
" />
<path d="M50870 36980
L51110 36980
L50980 37130
L51040 37130
L51080 37150
L51100 37170
L51110 37210
L51110 37300
L51100 37340
L51080 37360
L51040 37380
L50920 37380
L50890 37360
L50870 37340
" />
<path d="M54000 40250
L54000 43000
" />
<path d="M53780 40010
L54180 39880
L53780 39750
" />
<path d="M54160 39630
L54180 39580
L54180 39480
L54160 39440
L54140 39420
L54100 39410
L54070 39410
L54030 39420
L54010 39440
L53990 39480
L53970 39560
L53950 39600
L53930 39610
L53900 39630
L53860 39630
L53820 39610
L53800 39600
L53780 39560
L53780 39460
L53800 39410
" />
<path d="M54160 39250
L54180 39200
L54180 39100
L54160 39060
L54140 39040
L54100 39030
L54070 39030
L54030 39040
L54010 39060
L53990 39100
L53970 39180
L53950 39220
L53930 39230
L53900 39250
L53860 39250
L53820 39230
L53800 39220
L53780 39180
L53780 39080
L53800 39030
" />
<path d="M53610 41540
L53880 41540
" />
<path d="M53460 41640
L53750 41730
L53750 41490
" />
<path d="M57500 38500
L60500 38500
" />
<path d="M59080 37980
L59000 37980
L58960 38000
L58940 38020
L58910 38080
L58890 38150
L58890 38300
L58910 38340
L58920 38360
L58960 38380
L59040 38380
L59080 38360
L59100 38340
L59110 38300
L59110 38210
L59100 38170
L59080 38150
L59040 38130
L58960 38130
L58920 38150
L58910 38170
L58890 38210
" />
<path d="M54000 36750
L54000 34000
" />
<path d="M53780 38050
L54180 37920
L53780 37790
" />
<path d="M54180 37650
L53780 37650
L53780 37560
L53800 37500
L53840 37460
L53880 37450
L53950 37430
L54010 37430
L54090 37450
L54120 37460
L54160 37500
L54180 37560
L54180 37650
" />
<path d="M54180 37250
L53780 37250
L53780 37160
L53800 37100
L53840 37060
L53880 37050
L53950 37030
L54010 37030
L54090 37050
L54120 37060
L54160 37100
L54180 37160
L54180 37250
" />
<path d="M53480 35500
L53480 35240
L53880 35410
" />
<path d="M55500 37500
L55500 34000
" />
<path d="M55280 38630
L55280 38550
L55300 38510
L55340 38480
L55410 38460
L55550 38460
L55620 38480
L55660 38510
L55680 38550
L55680 38630
L55660 38670
L55620 38700
L55550 38720
L55410 38720
L55340 38700
L55300 38670
L55280 38630
" />
<path d="M55470 38150
L55470 38280
" />
<path d="M55680 38280
L55280 38280
L55280 38090
" />
<path d="M55470 37810
L55470 37940
" />
<path d="M55680 37940
L55280 37940
L55280 37750
" />
<path d="M55210 38800
L55210 37700
" />
<path d="M55150 35790
L55130 35830
L55110 35840
L55080 35860
L55060 35860
L55020 35840
L55000 35830
L54980 35790
L54980 35710
L55000 35670
L55020 35650
L55060 35640
L55080 35640
L55110 35650
L55130 35670
L55150 35710
L55150 35790
L55170 35830
L55190 35840
L55230 35860
L55300 35860
L55340 35840
L55360 35830
L55380 35790
L55380 35710
L55360 35670
L55340 35650
L55300 35640
L55230 35640
L55190 35650
L55170 35670
L55150 35710
" />
<path d="M56570 35140
L56570 35630
L56600 35680
L56630 35710
L56690 35740
L56800 35740
L56860 35710
L56890 35680
L56920 35630
L56920 35140
" />
<path d="M57290 35680
L57320 35710
L57290 35740
L57260 35710
L57290 35680
L57290 35740
" />
<path d="M57170 35170
L57230 35140
L57370 35140
L57430 35170
L57460 35230
L57460 35280
L57430 35340
L57400 35370
L57350 35400
L57320 35430
L57290 35480
L57290 35510
" />
<path d="M56620 36740
L56620 36140
L56820 36570
L57020 36140
L57020 36740
" />
<path d="M57280 36570
L57570 36570
" />
<path d="M57230 36740
L57430 36140
L57630 36740
" />
<path d="M57770 36140
L58170 36740
" />
<path d="M58170 36140
L57770 36740
" />
<path d="M58650 36340
L58650 36740
" />
<path d="M58510 36110
L58360 36540
L58740 36540
" />
<path d="M59220 36340
L59220 36740
" />
<path d="M59080 36110
L58930 36540
L59310 36540
" />
<path d="M59480 36140
L59880 36140
L59620 36740
" />
<path d="M60390 36140
L60100 36140
L60070 36430
L60100 36400
L60160 36370
L60300 36370
L60360 36400
L60390 36430
L60420 36480
L60420 36630
L60390 36680
L60360 36710
L60300 36740
L60160 36740
L60100 36710
L60070 36680
" />
</g>
<g style="fill:#000000; fill-opacity:0.0; 
stroke:#000000; stroke-width:0; stroke-opacity:1; 
stroke-linecap:round; stroke-linejoin:round;">
</g>
<g style="fill:#000000; fill-opacity:0.0; 
stroke:#000000; stroke-width:60; stroke-opacity:1; 
stroke-linecap:round; stroke-linejoin:round;">
<line x1="42700" y1="36600" x2="42900" y2="36600" />
<line x1="42700" y1="36600" x2="42700" y2="38400" />
<line x1="43400" y1="36800" x2="43400" y2="37200" />
<line x1="43200" y1="37000" x2="43600" y2="37000" />
</g>
<g style="fill:#000000; fill-opacity:1.0; 
stroke:#000000; stroke-width:60; stroke-opacity:1; 
stroke-linecap:round; stroke-linejoin:round;">
<rect x="42100" y="36600" width="200" height="1800" rx="0" />
</g>
<g style="fill:#000000; fill-opacity:0.0; 
stroke:#000000; stroke-width:60; stroke-opacity:1; 
stroke-linecap:round; stroke-linejoin:round;">
<line x1="42900" y1="36600" x2="42900" y2="38400" />
<line x1="42700" y1="38400" x2="42900" y2="38400" />
<path d="M42900 37500
L44500 37500
" />
<path d="M42100 37500
L40500 37500
" />
<path d="M44320 37110
L44300 37130
L44250 37150
L44210 37150
L44150 37130
L44110 37090
L44100 37060
L44080 36980
L44080 36920
L44100 36850
L44110 36810
L44150 36770
L44210 36750
L44250 36750
L44300 36770
L44320 36790
" />
<path d="M44550 37110
L44570 37130
L44550 37150
L44530 37130
L44550 37110
L44550 37150
" />
<path d="M44480 36770
L44510 36750
L44610 36750
L44650 36770
L44670 36810
L44670 36850
L44650 36880
L44630 36900
L44590 36920
L44570 36940
L44550 36980
L44550 37000
" />
<path d="M43800 38150
L43580 38150
" />
<path d="M43690 38150
L43690 37750
L43650 37810
L43610 37850
L43580 37870
" />
<path d="M44050 37750
L44090 37750
L44130 37770
L44150 37790
L44170 37830
L44180 37900
L44180 38000
L44170 38070
L44150 38110
L44130 38130
L44090 38150
L44050 38150
L44010 38130
L43990 38110
L43980 38070
L43960 38000
L43960 37900
L43980 37830
L43990 37790
L44010 37770
L44050 37750
" />
<path d="M44530 37880
L44530 38150
" />
<path d="M44360 37880
L44360 38090
L44370 38130
L44410 38150
L44470 38150
L44510 38130
L44530 38110
" />
</g>
<g style="fill:#000000; fill-opacity:0.0; 
stroke:#000000; stroke-width:0; stroke-opacity:1; 
stroke-linecap:round; stroke-linejoin:round;">
</g>
<g style="fill:#000000; fill-opacity:0.0; 
stroke:#000000; stroke-width:60; stroke-opacity:1; 
stroke-linecap:round; stroke-linejoin:round;">
<line x1="67600" y1="39400" x2="67800" y2="39400" />
<line x1="67800" y1="37600" x2="67800" y2="39400" />
<line x1="67100" y1="38800" x2="67100" y2="39200" />
<line x1="66900" y1="39000" x2="67300" y2="39000" />
</g>
<g style="fill:#000000; fill-opacity:1.0; 
stroke:#000000; stroke-width:60; stroke-opacity:1; 
stroke-linecap:round; stroke-linejoin:round;">
<rect x="68200" y="37600" width="200" height="1800" rx="0" />
</g>
<g style="fill:#000000; fill-opacity:0.0; 
stroke:#000000; stroke-width:60; stroke-opacity:1; 
stroke-linecap:round; stroke-linejoin:round;">
<line x1="67600" y1="37600" x2="67600" y2="39400" />
<line x1="67600" y1="37600" x2="67800" y2="37600" />
<path d="M67600 38500
L66000 38500
" />
<path d="M68400 38500
L70000 38500
" />
<path d="M69080 39170
L69060 39190
L69010 39210
L68970 39210
L68910 39190
L68870 39150
L68860 39120
L68840 39040
L68840 38980
L68860 38910
L68870 38870
L68910 38830
L68970 38810
L69010 38810
L69060 38830
L69080 38850
" />
<path d="M69310 39170
L69330 39190
L69310 39210
L69290 39190
L69310 39170
L69310 39210
" />
<path d="M69240 38830
L69270 38810
L69370 38810
L69410 38830
L69430 38870
L69430 38910
L69410 38940
L69390 38960
L69350 38980
L69330 39000
L69310 39040
L69310 39060
" />
<path d="M69180 38210
L68960 38210
" />
<path d="M69070 38210
L69070 37810
L69030 37870
L68990 37910
L68960 37930
" />
<path d="M69430 37810
L69470 37810
L69510 37830
L69530 37850
L69550 37890
L69560 37960
L69560 38060
L69550 38130
L69530 38170
L69510 38190
L69470 38210
L69430 38210
L69390 38190
L69370 38170
L69360 38130
L69340 38060
L69340 37960
L69360 37890
L69370 37850
L69390 37830
L69430 37810
" />
<path d="M69910 37940
L69910 38210
" />
<path d="M69740 37940
L69740 38150
L69750 38190
L69790 38210
L69850 38210
L69890 38190
L69910 38170
" />
</g>
<g style="fill:#000000; fill-opacity:0.0; 
stroke:#000000; stroke-width:0; stroke-opacity:1; 
stroke-linecap:round; stroke-linejoin:round;">
</g>
<g style="fill:#000000; fill-opacity:0.0; 
stroke:#000000; stroke-width:60; stroke-opacity:1; 
stroke-linecap:round; stroke-linejoin:round;">
<line x1="61100" y1="48100" x2="61100" y2="48300" />
<line x1="61100" y1="48300" x2="62900" y2="48300" />
<line x1="61300" y1="47600" x2="61700" y2="47600" />
<line x1="61500" y1="47400" x2="61500" y2="47800" />
</g>
<g style="fill:#000000; fill-opacity:1.0; 
stroke:#000000; stroke-width:60; stroke-opacity:1; 
stroke-linecap:round; stroke-linejoin:round;">
<rect x="61100" y="48700" width="1800" height="200" rx="0" />
</g>
<g style="fill:#000000; fill-opacity:0.0; 
stroke:#000000; stroke-width:60; stroke-opacity:1; 
stroke-linecap:round; stroke-linejoin:round;">
<line x1="61100" y1="48100" x2="62900" y2="48100" />
<line x1="62900" y1="48100" x2="62900" y2="48300" />
<path d="M62000 48100
L62000 46500
" />
<path d="M62000 48900
L62000 50500
" />
<path d="M61610 46680
L61630 46700
L61650 46750
L61650 46790
L61630 46850
L61590 46890
L61560 46900
L61480 46920
L61420 46920
L61350 46900
L61310 46890
L61270 46850
L61250 46790
L61250 46750
L61270 46700
L61290 46680
" />
<path d="M61610 46450
L61630 46430
L61650 46450
L61630 46470
L61610 46450
L61650 46450
" />
<path d="M61270 46520
L61250 46490
L61250 46390
L61270 46350
L61310 46330
L61350 46330
L61380 46350
L61400 46370
L61420 46410
L61440 46430
L61480 46450
L61500 46450
" />
<path d="M62650 47200
L62650 47420
" />
<path d="M62650 47310
L62250 47310
L62310 47350
L62350 47390
L62370 47420
" />
<path d="M62250 46950
L62250 46910
L62270 46870
L62290 46850
L62330 46830
L62400 46820
L62500 46820
L62570 46830
L62610 46850
L62630 46870
L62650 46910
L62650 46950
L62630 46990
L62610 47010
L62570 47020
L62500 47040
L62400 47040
L62330 47020
L62290 47010
L62270 46990
L62250 46950
" />
<path d="M62380 46470
L62650 46470
" />
<path d="M62380 46640
L62590 46640
L62630 46630
L62650 46590
L62650 46530
L62630 46490
L62610 46470
" />
</g>
<g style="fill:#000000; fill-opacity:0.0; 
stroke:#000000; stroke-width:0; stroke-opacity:1; 
stroke-linecap:round; stroke-linejoin:round;">
</g>
<g style="fill:#000000; fill-opacity:0.0; 
stroke:#000000; stroke-width:120; stroke-opacity:1; 
stroke-linecap:round; stroke-linejoin:round;">
<rect x="61600" y="40500" width="800" height="3000" rx="0" />
</g>
<g style="fill:#000000; fill-opacity:0.0; 
stroke:#000000; stroke-width:60; stroke-opacity:1; 
stroke-linecap:round; stroke-linejoin:round;">
<path d="M62000 40500
L62000 39500
" />
<path d="M62000 43500
L62000 44500
" />
<path d="M62950 41150
L62820 40960
" />
<path d="M62730 41150
L62730 40750
L62880 40750
L62920 40770
L62930 40790
L62950 40830
L62950 40880
L62930 40920
L62920 40940
L62880 40960
L62730 40960
" />
<path d="M63180 41110
L63200 41130
L63180 41150
L63160 41130
L63180 41110
L63180 41150
" />
<path d="M63110 40770
L63140 40750
L63240 40750
L63280 40770
L63300 40810
L63300 40850
L63280 40880
L63260 40900
L63220 40920
L63200 40940
L63180 40980
L63180 41000
" />
<path d="M62220 41870
L62030 42000
" />
<path d="M62220 42090
L61820 42090
L61820 41940
L61840 41900
L61860 41890
L61900 41870
L61950 41870
L61990 41890
L62010 41900
L62030 41940
L62030 42090
" />
</g>
<g style="fill:#000000; fill-opacity:0.0; 
stroke:#000000; stroke-width:0; stroke-opacity:1; 
stroke-linecap:round; stroke-linejoin:round;">
</g>
<g style="fill:#000000; fill-opacity:0.0; 
stroke:#000000; stroke-width:120; stroke-opacity:1; 
stroke-linecap:round; stroke-linejoin:round;">
<rect x="61600" y="52500" width="800" height="3000" rx="0" />
</g>
<g style="fill:#000000; fill-opacity:0.0; 
stroke:#000000; stroke-width:60; stroke-opacity:1; 
stroke-linecap:round; stroke-linejoin:round;">
<path d="M62000 52500
L62000 51500
" />
<path d="M62000 55500
L62000 56500
" />
<path d="M62950 53150
L62820 52960
" />
<path d="M62730 53150
L62730 52750
L62880 52750
L62920 52770
L62930 52790
L62950 52830
L62950 52880
L62930 52920
L62920 52940
L62880 52960
L62730 52960
" />
<path d="M63180 53110
L63200 53130
L63180 53150
L63160 53130
L63180 53110
L63180 53150
" />
<path d="M63110 52770
L63140 52750
L63240 52750
L63280 52770
L63300 52810
L63300 52850
L63280 52880
L63260 52900
L63220 52920
L63200 52940
L63180 52980
L63180 53000
" />
<path d="M62220 54040
L62220 54260
" />
<path d="M62220 54150
L61820 54150
L61880 54190
L61920 54230
L61940 54260
" />
<path d="M62220 53860
L61820 53860
" />
<path d="M62070 53830
L62220 53710
" />
<path d="M61950 53710
L62110 53860
" />
</g>
<g style="fill:#000000; fill-opacity:0.0; 
stroke:#000000; stroke-width:0; stroke-opacity:1; 
stroke-linecap:round; stroke-linejoin:round;">
</g>
<g style="fill:#000000; fill-opacity:0.0; 
stroke:#000000; stroke-width:60; stroke-opacity:1; 
stroke-linecap:round; stroke-linejoin:round;">
<polyline fill="none;"
points="54000,43500
54000,44000
54500,44000
54000,44500
53500,44000
54000,44000
" /> 
</g>
<g style="fill:#000000; fill-opacity:0.0; 
stroke:#000000; stroke-width:0; stroke-opacity:1; 
stroke-linecap:round; stroke-linejoin:round;">
</g>
<g style="fill:#000000; fill-opacity:0.0; 
stroke:#000000; stroke-width:120; stroke-opacity:1; 
stroke-linecap:round; stroke-linejoin:round;">
<rect x="45600" y="39500" width="800" height="3000" rx="0" />
</g>
<g style="fill:#000000; fill-opacity:0.0; 
stroke:#000000; stroke-width:60; stroke-opacity:1; 
stroke-linecap:round; stroke-linejoin:round;">
<path d="M46000 39500
L46000 38500
" />
<path d="M46000 42500
L46000 43500
" />
<path d="M46950 40150
L46820 39960
" />
<path d="M46730 40150
L46730 39750
L46880 39750
L46920 39770
L46930 39790
L46950 39830
L46950 39880
L46930 39920
L46920 39940
L46880 39960
L46730 39960
" />
<path d="M47180 40110
L47200 40130
L47180 40150
L47160 40130
L47180 40110
L47180 40150
" />
<path d="M47110 39770
L47140 39750
L47240 39750
L47280 39770
L47300 39810
L47300 39850
L47280 39880
L47260 39900
L47220 39920
L47200 39940
L47180 39980
L47180 40000
" />
<path d="M45950 41260
L46220 41260
" />
<path d="M45800 41360
L46090 41450
L46090 41210
" />
<path d="M45820 41090
L45820 40830
L46220 41000
" />
<path d="M46220 40670
L45820 40670
" />
<path d="M46070 40640
L46220 40520
" />
<path d="M45950 40520
L46110 40670
" />
</g>
<g style="fill:#000000; fill-opacity:0.0; 
stroke:#000000; stroke-width:0; stroke-opacity:1; 
stroke-linecap:round; stroke-linejoin:round;">
</g>
<g style="fill:#000000; fill-opacity:0.0; 
stroke:#000000; stroke-width:120; stroke-opacity:1; 
stroke-linecap:round; stroke-linejoin:round;">
<rect x="45600" y="32500" width="800" height="3000" rx="0" />
</g>
<g style="fill:#000000; fill-opacity:0.0; 
stroke:#000000; stroke-width:60; stroke-opacity:1; 
stroke-linecap:round; stroke-linejoin:round;">
<path d="M46000 32500
L46000 31500
" />
<path d="M46000 35500
L46000 36500
" />
<path d="M46950 33150
L46820 32960
" />
<path d="M46730 33150
L46730 32750
L46880 32750
L46920 32770
L46930 32790
L46950 32830
L46950 32880
L46930 32920
L46920 32940
L46880 32960
L46730 32960
" />
<path d="M47180 33110
L47200 33130
L47180 33150
L47160 33130
L47180 33110
L47180 33150
" />
<path d="M47110 32770
L47140 32750
L47240 32750
L47280 32770
L47300 32810
L47300 32850
L47280 32880
L47260 32900
L47220 32920
L47200 32940
L47180 32980
L47180 33000
" />
<path d="M45950 34260
L46220 34260
" />
<path d="M45800 34360
L46090 34450
L46090 34210
" />
<path d="M45820 34090
L45820 33830
L46220 34000
" />
<path d="M46220 33670
L45820 33670
" />
<path d="M46070 33640
L46220 33520
" />
<path d="M45950 33520
L46110 33670
" />
</g>
<g style="fill:#000000; fill-opacity:0.0; 
stroke:#000000; stroke-width:0; stroke-opacity:1; 
stroke-linecap:round; stroke-linejoin:round;">
</g>
<g style="fill:#000000; fill-opacity:0.0; 
stroke:#000000; stroke-width:60; stroke-opacity:1; 
stroke-linecap:round; stroke-linejoin:round;">
<circle cx="37000" cy="42000" r="1000" /> 
</g>
<g style="fill:#000000; fill-opacity:0.0; 
stroke:#000000; stroke-width:240; stroke-opacity:1; 
stroke-linecap:round; stroke-linejoin:round;">
<polyline fill="none;"
points="36000,43000
36000,41000
" /> 
</g>
<g style="fill:#000000; fill-opacity:0.0; 
stroke:#000000; stroke-width:60; stroke-opacity:1; 
stroke-linecap:round; stroke-linejoin:round;">
<path d="M37000 41010
L37000 39000
" />
<path d="M37000 42990
L37000 45000
" />
<path d="M36540 42240
L36540 41640
L36740 42070
L36940 41640
L36940 42240
" />
<path d="M37320 42180
L37350 42210
L37320 42240
L37290 42210
L37320 42180
L37320 42240
" />
<path d="M37200 41670
L37260 41640
L37400 41640
L37460 41670
L37490 41730
L37490 41780
L37460 41840
L37430 41870
L37380 41900
L37350 41930
L37320 41980
L37320 42010
" />
</g>
<g style="fill:#000000; fill-opacity:0.0; 
stroke:#000000; stroke-width:0; stroke-opacity:1; 
stroke-linecap:round; stroke-linejoin:round;">
</g>
<g style="fill:#000000; fill-opacity:0.0; 
stroke:#000000; stroke-width:60; stroke-opacity:1; 
stroke-linecap:round; stroke-linejoin:round;">
<polyline fill="none;"
points="37000,46500
37000,47000
37500,47000
37000,47500
36500,47000
37000,47000
" /> 
</g>
<g style="fill:#000000; fill-opacity:0.0; 
stroke:#000000; stroke-width:0; stroke-opacity:1; 
stroke-linecap:round; stroke-linejoin:round;">
</g>
<g style="fill:#000000; fill-opacity:0.0; 
stroke:#000000; stroke-width:60; stroke-opacity:1; 
stroke-linecap:round; stroke-linejoin:round;">
<polyline fill="none;"
points="46000,46500
46000,47000
46500,47000
46000,47500
45500,47000
46000,47000
" /> 
</g>
<g style="fill:#000000; fill-opacity:0.0; 
stroke:#000000; stroke-width:0; stroke-opacity:1; 
stroke-linecap:round; stroke-linejoin:round;">
</g>
<g style="fill:#000000; fill-opacity:0.0; 
stroke:#000000; stroke-width:120; stroke-opacity:1; 
stroke-linecap:round; stroke-linejoin:round;">
<rect x="36600" y="32500" width="800" height="3000" rx="0" />
</g>
<g style="fill:#000000; fill-opacity:0.0; 
stroke:#000000; stroke-width:60; stroke-opacity:1; 
stroke-linecap:round; stroke-linejoin:round;">
<path d="M37000 32500
L37000 31500
" />
<path d="M37000 35500
L37000 36500
" />
<path d="M37950 33150
L37820 32960
" />
<path d="M37730 33150
L37730 32750
L37880 32750
L37920 32770
L37930 32790
L37950 32830
L37950 32880
L37930 32920
L37920 32940
L37880 32960
L37730 32960
" />
<path d="M38180 33110
L38200 33130
L38180 33150
L38160 33130
L38180 33110
L38180 33150
" />
<path d="M38110 32770
L38140 32750
L38240 32750
L38280 32770
L38300 32810
L38300 32850
L38280 32880
L38260 32900
L38220 32920
L38200 32940
L38180 32980
L38180 33000
" />
<path d="M37220 33870
L37030 34000
" />
<path d="M37220 34090
L36820 34090
L36820 33940
L36840 33900
L36860 33890
L36900 33870
L36950 33870
L36990 33890
L37010 33900
L37030 33940
L37030 34090
" />
</g>
<g style="fill:#000000; fill-opacity:0.0; 
stroke:#000000; stroke-width:0; stroke-opacity:1; 
stroke-linecap:round; stroke-linejoin:round;">
</g>
<g style="fill:#000000; fill-opacity:0.0; 
stroke:#000000; stroke-width:60; stroke-opacity:1; 
stroke-linecap:round; stroke-linejoin:round;">
<polyline fill="none;"
points="62000,57500
62000,58000
62500,58000
62000,58500
61500,58000
62000,58000
" /> 
<path d="M60500 38500
L66000 38500
" />
<path d="M62000 44500
L62000 46500
" />
<path d="M62000 39500
L62000 38500
" />
</g>
<g style="fill:#000000; fill-opacity:0.0; 
stroke:#000000; stroke-width:0; stroke-opacity:1; 
stroke-linecap:round; stroke-linejoin:round;">
</g>
<g style="fill:#000000; fill-opacity:1.0; 
stroke:#000000; stroke-width:100; stroke-opacity:1; 
stroke-linecap:round; stroke-linejoin:round;">
<circle cx="62000" cy="38500" r="200" /> 
</g>
<g style="fill:#000000; fill-opacity:1.0; 
stroke:#000000; stroke-width:60; stroke-opacity:1; 
stroke-linecap:round; stroke-linejoin:round;">
</g>
<g style="fill:#000000; fill-opacity:0.0; 
stroke:#000000; stroke-width:60; stroke-opacity:1; 
stroke-linecap:round; stroke-linejoin:round;">
<path d="M49500 39500
L49500 45500
" />
<path d="M49500 45500
L62000 45500
" />
</g>
<g style="fill:#000000; fill-opacity:0.0; 
stroke:#000000; stroke-width:0; stroke-opacity:1; 
stroke-linecap:round; stroke-linejoin:round;">
</g>
<g style="fill:#000000; fill-opacity:1.0; 
stroke:#000000; stroke-width:100; stroke-opacity:1; 
stroke-linecap:round; stroke-linejoin:round;">
<circle cx="62000" cy="45500" r="200" /> 
</g>
<g style="fill:#000000; fill-opacity:1.0; 
stroke:#000000; stroke-width:60; stroke-opacity:1; 
stroke-linecap:round; stroke-linejoin:round;">
</g>
<g style="fill:#000000; fill-opacity:0.0; 
stroke:#000000; stroke-width:60; stroke-opacity:1; 
stroke-linecap:round; stroke-linejoin:round;">
<path d="M54000 43500
L54000 43000
" />
<path d="M44500 37500
L49500 37500
" />
<path d="M46000 36500
L46000 38500
" />
</g>
<g style="fill:#000000; fill-opacity:0.0; 
stroke:#000000; stroke-width:0; stroke-opacity:1; 
stroke-linecap:round; stroke-linejoin:round;">
</g>
<g style="fill:#000000; fill-opacity:1.0; 
stroke:#000000; stroke-width:100; stroke-opacity:1; 
stroke-linecap:round; stroke-linejoin:round;">
<circle cx="46000" cy="37500" r="200" /> 
</g>
<g style="fill:#000000; fill-opacity:1.0; 
stroke:#000000; stroke-width:60; stroke-opacity:1; 
stroke-linecap:round; stroke-linejoin:round;">
</g>
<g style="fill:#000000; fill-opacity:0.0; 
stroke:#000000; stroke-width:60; stroke-opacity:1; 
stroke-linecap:round; stroke-linejoin:round;">
<path d="M40500 37500
L37000 37500
" />
<path d="M37000 36500
L37000 39000
" />
<path d="M37000 46500
L37000 45000
" />
<path d="M46000 46500
L46000 43500
" />
</g>
<g style="fill:#000000; fill-opacity:0.0; 
stroke:#000000; stroke-width:0; stroke-opacity:1; 
stroke-linecap:round; stroke-linejoin:round;">
</g>
<g style="fill:#000000; fill-opacity:1.0; 
stroke:#000000; stroke-width:100; stroke-opacity:1; 
stroke-linecap:round; stroke-linejoin:round;">
<circle cx="37000" cy="37500" r="200" /> 
</g>
<g style="fill:#000000; fill-opacity:1.0; 
stroke:#000000; stroke-width:60; stroke-opacity:1; 
stroke-linecap:round; stroke-linejoin:round;">
</g>
<g style="fill:#000000; fill-opacity:0.0; 
stroke:#000000; stroke-width:60; stroke-opacity:1; 
stroke-linecap:round; stroke-linejoin:round;">
<path d="M62000 51500
L62000 50500
" />
<path d="M62000 57500
L62000 56500
" />
<path d="M54000 28000
L54000 34000
" />
<path d="M54000 32500
L55500 32500
" />
<path d="M55500 32500
L55500 34000
" />
</g>
<g style="fill:#000000; fill-opacity:0.0; 
stroke:#000000; stroke-width:0; stroke-opacity:1; 
stroke-linecap:round; stroke-linejoin:round;">
</g>
<g style="fill:#000000; fill-opacity:0.0; 
stroke:#000000; stroke-width:60; stroke-opacity:1; 
stroke-linecap:round; stroke-linejoin:round;">
<path d="M66500 27999.1 A500 500 0.0 0 0 65500 27999.1 " />
<path d="M67500 27999.1 A500 500 0.0 0 0 66500 27999.1 " />
<path d="M68500 27999.1 A500 500 0.0 0 0 67500 27999.1 " />
<path d="M69500 27999.1 A500 500 0.0 0 0 68500 27999.1 " />
<path d="M65500 28000
L65000 28000
" />
<path d="M69500 28000
L70000 28000
" />
<path d="M67450 27200
L67210 27200
L67210 26700
" />
<path d="M67680 27150
L67700 27170
L67680 27200
L67660 27170
L67680 27150
L67680 27200
" />
<path d="M67590 26720
L67630 26700
L67750 26700
L67800 26720
L67820 26770
L67820 26820
L67800 26860
L67780 26890
L67730 26910
L67700 26930
L67680 26980
L67680 27010
" />
<path d="M37000 28000
L65000 28000
" />
<path d="M37000 28000
L37000 31500
" />
<path d="M46000 31500
L46000 28000
" />
</g>
<g style="fill:#000000; fill-opacity:0.0; 
stroke:#000000; stroke-width:0; stroke-opacity:1; 
stroke-linecap:round; stroke-linejoin:round;">
</g>
<g style="fill:#000000; fill-opacity:1.0; 
stroke:#000000; stroke-width:100; stroke-opacity:1; 
stroke-linecap:round; stroke-linejoin:round;">
<circle cx="46000" cy="28000" r="200" /> 
</g>
<g style="fill:#000000; fill-opacity:1.0; 
stroke:#000000; stroke-width:0; stroke-opacity:1; 
stroke-linecap:round; stroke-linejoin:round;">
</g>
<g style="fill:#000000; fill-opacity:1.0; 
stroke:#000000; stroke-width:100; stroke-opacity:1; 
stroke-linecap:round; stroke-linejoin:round;">
<circle cx="54000" cy="32500" r="200" /> 
</g>
<g style="fill:#000000; fill-opacity:1.0; 
stroke:#000000; stroke-width:0; stroke-opacity:1; 
stroke-linecap:round; stroke-linejoin:round;">
</g>
<g style="fill:#000000; fill-opacity:1.0; 
stroke:#000000; stroke-width:100; stroke-opacity:1; 
stroke-linecap:round; stroke-linejoin:round;">
<circle cx="54000" cy="28000" r="200" /> 
</g>
<g style="fill:#000000; fill-opacity:1.0; 
stroke:#000000; stroke-width:0; stroke-opacity:1; 
stroke-linecap:round; stroke-linejoin:round;">
</g>
<g style="fill:#000000; fill-opacity:0.0; 
stroke:#000000; stroke-width:60; stroke-opacity:1; 
stroke-linecap:round; stroke-linejoin:round;">
<line x1="58100" y1="30600" x2="58100" y2="30800" />
<line x1="58100" y1="30800" x2="59900" y2="30800" />
<line x1="58300" y1="30100" x2="58700" y2="30100" />
<line x1="58500" y1="29900" x2="58500" y2="30300" />
</g>
<g style="fill:#000000; fill-opacity:1.0; 
stroke:#000000; stroke-width:60; stroke-opacity:1; 
stroke-linecap:round; stroke-linejoin:round;">
<rect x="58100" y="31200" width="1800" height="200" rx="0" />
</g>
<g style="fill:#000000; fill-opacity:0.0; 
stroke:#000000; stroke-width:60; stroke-opacity:1; 
stroke-linecap:round; stroke-linejoin:round;">
<line x1="58100" y1="30600" x2="59900" y2="30600" />
<line x1="59900" y1="30600" x2="59900" y2="30800" />
<path d="M59000 30600
L59000 29000
" />
<path d="M59000 31400
L59000 33000
" />
<path d="M59820 30110
L59800 30130
L59750 30150
L59710 30150
L59650 30130
L59610 30090
L59600 30060
L59580 29980
L59580 29920
L59600 29850
L59610 29810
L59650 29770
L59710 29750
L59750 29750
L59800 29770
L59820 29790
" />
<path d="M60050 30110
L60070 30130
L60050 30150
L60030 30130
L60050 30110
L60050 30150
" />
<path d="M59980 29770
L60010 29750
L60110 29750
L60150 29770
L60170 29810
L60170 29850
L60150 29880
L60130 29900
L60090 29920
L60070 29940
L60050 29980
L60050 30000
" />
<path d="M59580 31790
L59600 31770
L59630 31750
L59730 31750
L59770 31770
L59790 31790
L59800 31830
L59800 31870
L59790 31920
L59560 32150
L59800 32150
" />
<path d="M59960 31790
L59980 31770
L60010 31750
L60110 31750
L60150 31770
L60170 31790
L60180 31830
L60180 31870
L60170 31920
L59940 32150
L60180 32150
" />
<path d="M60530 31880
L60530 32150
" />
<path d="M60360 31880
L60360 32090
L60370 32130
L60410 32150
L60470 32150
L60510 32130
L60530 32110
" />
</g>
<g style="fill:#000000; fill-opacity:0.0; 
stroke:#000000; stroke-width:0; stroke-opacity:1; 
stroke-linecap:round; stroke-linejoin:round;">
</g>
<g style="fill:#000000; fill-opacity:0.0; 
stroke:#000000; stroke-width:60; stroke-opacity:1; 
stroke-linecap:round; stroke-linejoin:round;">
<polyline fill="none;"
points="59000,33500
59000,34000
59500,34000
59000,34500
58500,34000
59000,34000
" /> 
<path d="M59000 33500
L59000 33000
" />
<path d="M59000 29000
L59000 28000
" />
</g>
<g style="fill:#000000; fill-opacity:0.0; 
stroke:#000000; stroke-width:0; stroke-opacity:1; 
stroke-linecap:round; stroke-linejoin:round;">
</g>
<g style="fill:#000000; fill-opacity:1.0; 
stroke:#000000; stroke-width:100; stroke-opacity:1; 
stroke-linecap:round; stroke-linejoin:round;">
<circle cx="59000" cy="28000" r="200" /> 
</g>
<g style="fill:#000000; fill-opacity:1.0; 
stroke:#000000; stroke-width:0; stroke-opacity:1; 
stroke-linecap:round; stroke-linejoin:round;">
</g>
<g style="fill:#000000; fill-opacity:0.0; 
stroke:#000000; stroke-width:200; stroke-opacity:1; 
stroke-linecap:round; stroke-linejoin:round;">
<polyline fill="none;"
points="61700,31300
63300,31300
" /> 
<polyline fill="none;"
points="61700,30700
63300,30700
" /> 
</g>
<g style="fill:#000000; fill-opacity:0.0; 
stroke:#000000; stroke-width:60; stroke-opacity:1; 
stroke-linecap:round; stroke-linejoin:round;">
<path d="M62500 30700
L62500 29000
" />
<path d="M62500 31300
L62500 33000
" />
<path d="M62820 30110
L62800 30130
L62750 30150
L62710 30150
L62650 30130
L62610 30090
L62600 30060
L62580 29980
L62580 29920
L62600 29850
L62610 29810
L62650 29770
L62710 29750
L62750 29750
L62800 29770
L62820 29790
" />
<path d="M63050 30110
L63070 30130
L63050 30150
L63030 30130
L63050 30110
L63050 30150
" />
<path d="M62980 29770
L63010 29750
L63110 29750
L63150 29770
L63170 29810
L63170 29850
L63150 29880
L63130 29900
L63090 29920
L63070 29940
L63050 29980
L63050 30000
" />
<path d="M63300 32150
L63080 32150
" />
<path d="M63190 32150
L63190 31750
L63150 31810
L63110 31850
L63080 31870
" />
<path d="M63550 31750
L63590 31750
L63630 31770
L63650 31790
L63670 31830
L63680 31900
L63680 32000
L63670 32070
L63650 32110
L63630 32130
L63590 32150
L63550 32150
L63510 32130
L63490 32110
L63480 32070
L63460 32000
L63460 31900
L63480 31830
L63490 31790
L63510 31770
L63550 31750
" />
<path d="M63930 31750
L63970 31750
L64010 31770
L64030 31790
L64050 31830
L64060 31900
L64060 32000
L64050 32070
L64030 32110
L64010 32130
L63970 32150
L63930 32150
L63890 32130
L63870 32110
L63860 32070
L63840 32000
L63840 31900
L63860 31830
L63870 31790
L63890 31770
L63930 31750
" />
<path d="M64240 31880
L64240 32150
" />
<path d="M64240 31920
L64250 31900
L64290 31880
L64350 31880
L64390 31900
L64410 31940
L64410 32150
" />
<path d="M62500 29000
L62500 28000
" />
</g>
<g style="fill:#000000; fill-opacity:0.0; 
stroke:#000000; stroke-width:0; stroke-opacity:1; 
stroke-linecap:round; stroke-linejoin:round;">
</g>
<g style="fill:#000000; fill-opacity:1.0; 
stroke:#000000; stroke-width:100; stroke-opacity:1; 
stroke-linecap:round; stroke-linejoin:round;">
<circle cx="62500" cy="28000" r="200" /> 
</g>
<g style="fill:#000000; fill-opacity:1.0; 
stroke:#000000; stroke-width:0; stroke-opacity:1; 
stroke-linecap:round; stroke-linejoin:round;">
</g>
<g style="fill:#000000; fill-opacity:0.0; 
stroke:#000000; stroke-width:60; stroke-opacity:1; 
stroke-linecap:round; stroke-linejoin:round;">
<polyline fill="none;"
points="62500,33500
62500,34000
63000,34000
62500,34500
62000,34000
62500,34000
" /> 
<path d="M62500 33500
L62500 33000
" />
</g>
<g style="fill:#000000; fill-opacity:0.0; 
stroke:#000000; stroke-width:0; stroke-opacity:1; 
stroke-linecap:round; stroke-linejoin:round;">
</g>
<g style="fill:#000000; fill-opacity:0.0; 
stroke:#000000; stroke-width:60; stroke-opacity:1; 
stroke-linecap:round; stroke-linejoin:round;">
<line x1="71100" y1="30600" x2="71100" y2="30800" />
<line x1="71100" y1="30800" x2="72900" y2="30800" />
<line x1="71300" y1="30100" x2="71700" y2="30100" />
<line x1="71500" y1="29900" x2="71500" y2="30300" />
</g>
<g style="fill:#000000; fill-opacity:1.0; 
stroke:#000000; stroke-width:60; stroke-opacity:1; 
stroke-linecap:round; stroke-linejoin:round;">
<rect x="71100" y="31200" width="1800" height="200" rx="0" />
</g>
<g style="fill:#000000; fill-opacity:0.0; 
stroke:#000000; stroke-width:60; stroke-opacity:1; 
stroke-linecap:round; stroke-linejoin:round;">
<line x1="71100" y1="30600" x2="72900" y2="30600" />
<line x1="72900" y1="30600" x2="72900" y2="30800" />
<path d="M72000 30600
L72000 29000
" />
<path d="M72000 31400
L72000 33000
" />
<path d="M72820 30110
L72800 30130
L72750 30150
L72710 30150
L72650 30130
L72610 30090
L72600 30060
L72580 29980
L72580 29920
L72600 29850
L72610 29810
L72650 29770
L72710 29750
L72750 29750
L72800 29770
L72820 29790
" />
<path d="M73050 30110
L73070 30130
L73050 30150
L73030 30130
L73050 30110
L73050 30150
" />
<path d="M72980 29770
L73010 29750
L73110 29750
L73150 29770
L73170 29810
L73170 29850
L73150 29880
L73130 29900
L73090 29920
L73070 29940
L73050 29980
L73050 30000
" />
<path d="M72580 31790
L72600 31770
L72630 31750
L72730 31750
L72770 31770
L72790 31790
L72800 31830
L72800 31870
L72790 31920
L72560 32150
L72800 32150
" />
<path d="M72960 31790
L72980 31770
L73010 31750
L73110 31750
L73150 31770
L73170 31790
L73180 31830
L73180 31870
L73170 31920
L72940 32150
L73180 32150
" />
<path d="M73530 31880
L73530 32150
" />
<path d="M73360 31880
L73360 32090
L73370 32130
L73410 32150
L73470 32150
L73510 32130
L73530 32110
" />
<path d="M72000 29000
L72000 28000
" />
<path d="M70000 28000
L75500 28000
" />
</g>
<g style="fill:#000000; fill-opacity:0.0; 
stroke:#000000; stroke-width:0; stroke-opacity:1; 
stroke-linecap:round; stroke-linejoin:round;">
</g>
<g style="fill:#000000; fill-opacity:0.0; 
stroke:#000000; stroke-width:60; stroke-opacity:1; 
stroke-linecap:round; stroke-linejoin:round;">
<polyline fill="none;"
points="72000,33500
72000,34000
72500,34000
72000,34500
71500,34000
72000,34000
" /> 
<path d="M72000 33500
L72000 33000
" />
</g>
<g style="fill:#000000; fill-opacity:0.0; 
stroke:#000000; stroke-width:0; stroke-opacity:1; 
stroke-linecap:round; stroke-linejoin:round;">
</g>
<g style="fill:#000000; fill-opacity:0.0; 
stroke:#000000; stroke-width:60; stroke-opacity:1; 
stroke-linecap:round; stroke-linejoin:round;">
<rect x="78000" y="39450" width="600" height="100" rx="0" />
<rect x="78000" y="38450" width="600" height="100" rx="0" />
<rect x="78000" y="37450" width="600" height="100" rx="0" />
<rect x="78000" y="37000" width="1000" height="3000" rx="0" />
<path d="M78000 37500
L76500 37500
" />
<path d="M77390 37380
L77110 37380
" />
<path d="M77250 37380
L77250 36880
L77200 36950
L77150 37000
L77110 37020
" />
<path d="M78000 38500
L76500 38500
" />
<path d="M77110 37920
L77130 37900
L77180 37880
L77300 37880
L77340 37900
L77370 37920
L77390 37970
L77390 38020
L77370 38090
L77080 38380
L77390 38380
" />
<path d="M78000 39500
L76500 39500
" />
<path d="M77080 38880
L77390 38880
L77220 39070
L77300 39070
L77340 39090
L77370 39110
L77390 39160
L77390 39280
L77370 39330
L77340 39350
L77300 39380
L77150 39380
L77110 39350
L77080 39330
" />
<path d="M78160 36700
L78160 36200
L78350 36200
L78400 36220
L78420 36240
L78440 36290
L78440 36360
L78420 36410
L78400 36430
L78350 36460
L78160 36460
" />
<path d="M78730 36650
L78750 36670
L78730 36700
L78710 36670
L78730 36650
L78730 36700
" />
<path d="M78640 36220
L78680 36200
L78800 36200
L78850 36220
L78870 36270
L78870 36320
L78850 36360
L78830 36390
L78780 36410
L78750 36430
L78730 36480
L78730 36510
" />
<path d="M79650 40520
L79670 40540
L79700 40610
L79700 40660
L79670 40730
L79620 40780
L79580 40800
L79480 40820
L79410 40820
L79320 40800
L79270 40780
L79220 40730
L79200 40660
L79200 40610
L79220 40540
L79240 40520
" />
<path d="M79200 40210
L79200 40110
L79220 40060
L79270 40020
L79360 39990
L79530 39990
L79620 40020
L79670 40060
L79700 40110
L79700 40210
L79670 40250
L79620 40300
L79530 40320
L79360 40320
L79270 40300
L79220 40250
L79200 40210
" />
<path d="M79700 39780
L79200 39780
L79700 39500
L79200 39500
" />
<path d="M79700 39260
L79200 39260
L79700 38980
L79200 38980
" />
<path d="M79740 38860
L79740 38480
" />
<path d="M79200 38270
L79200 38220
L79220 38170
L79240 38150
L79290 38120
L79390 38100
L79510 38100
L79600 38120
L79650 38150
L79670 38170
L79700 38220
L79700 38270
L79670 38310
L79650 38340
L79600 38360
L79510 38380
L79390 38380
L79290 38360
L79240 38340
L79220 38310
L79200 38270
" />
<path d="M79700 37620
L79700 37900
" />
<path d="M79700 37760
L79200 37760
L79270 37810
L79320 37860
L79340 37900
" />
<path d="M79200 37450
L79700 37120
" />
<path d="M79200 37120
L79700 37450
" />
<path d="M79200 36830
L79200 36780
L79220 36730
L79240 36710
L79290 36680
L79390 36660
L79510 36660
L79600 36680
L79650 36710
L79670 36730
L79700 36780
L79700 36830
L79670 36870
L79650 36900
L79600 36920
L79510 36940
L79390 36940
L79290 36920
L79240 36900
L79220 36870
L79200 36830
" />
<path d="M79200 36490
L79200 36180
L79390 36350
L79390 36270
L79410 36230
L79430 36200
L79480 36180
L79600 36180
L79650 36200
L79670 36230
L79700 36270
L79700 36420
L79670 36460
L79650 36490
" />
<path d="M75500 28000
L75500 37500
" />
<path d="M75500 37500
L76500 37500
" />
</g>
<g style="fill:#000000; fill-opacity:0.0; 
stroke:#000000; stroke-width:0; stroke-opacity:1; 
stroke-linecap:round; stroke-linejoin:round;">
</g>
<g style="fill:#000000; fill-opacity:1.0; 
stroke:#000000; stroke-width:100; stroke-opacity:1; 
stroke-linecap:round; stroke-linejoin:round;">
<circle cx="72000" cy="28000" r="200" /> 
</g>
<g style="fill:#000000; fill-opacity:1.0; 
stroke:#000000; stroke-width:60; stroke-opacity:1; 
stroke-linecap:round; stroke-linejoin:round;">
</g>
<g style="fill:#000000; fill-opacity:0.0; 
stroke:#000000; stroke-width:60; stroke-opacity:1; 
stroke-linecap:round; stroke-linejoin:round;">
<path d="M76500 38500
L70000 38500
" />
</g>
<g style="fill:#000000; fill-opacity:0.0; 
stroke:#000000; stroke-width:0; stroke-opacity:1; 
stroke-linecap:round; stroke-linejoin:round;">
</g>
<g style="fill:#000000; fill-opacity:0.0; 
stroke:#000000; stroke-width:60; stroke-opacity:1; 
stroke-linecap:round; stroke-linejoin:round;">
<polyline fill="none;"
points="75500,40500
75500,41000
76000,41000
75500,41500
75000,41000
75500,41000
" /> 
<path d="M75500 40500
L75500 39500
" />
<path d="M75500 39500
L76500 39500
" />
</g>
<g style="fill:#000000; fill-opacity:0.0; 
stroke:#000000; stroke-width:0; stroke-opacity:1; 
stroke-linecap:round; stroke-linejoin:round;">
</g>
<g style="fill:#000000; fill-opacity:0.0; 
stroke:#000000; stroke-width:200; stroke-opacity:1; 
stroke-linecap:round; stroke-linejoin:round;">
<polyline fill="none;"
points="40700,31300
42300,31300
" /> 
<polyline fill="none;"
points="40700,30700
42300,30700
" /> 
</g>
<g style="fill:#000000; fill-opacity:0.0; 
stroke:#000000; stroke-width:60; stroke-opacity:1; 
stroke-linecap:round; stroke-linejoin:round;">
<path d="M41500 30700
L41500 29000
" />
<path d="M41500 31300
L41500 33000
" />
<path d="M41820 30110
L41800 30130
L41750 30150
L41710 30150
L41650 30130
L41610 30090
L41600 30060
L41580 29980
L41580 29920
L41600 29850
L41610 29810
L41650 29770
L41710 29750
L41750 29750
L41800 29770
L41820 29790
" />
<path d="M42050 30110
L42070 30130
L42050 30150
L42030 30130
L42050 30110
L42050 30150
" />
<path d="M41980 29770
L42010 29750
L42110 29750
L42150 29770
L42170 29810
L42170 29850
L42150 29880
L42130 29900
L42090 29920
L42070 29940
L42050 29980
L42050 30000
" />
<path d="M42300 32150
L42080 32150
" />
<path d="M42190 32150
L42190 31750
L42150 31810
L42110 31850
L42080 31870
" />
<path d="M42550 31750
L42590 31750
L42630 31770
L42650 31790
L42670 31830
L42680 31900
L42680 32000
L42670 32070
L42650 32110
L42630 32130
L42590 32150
L42550 32150
L42510 32130
L42490 32110
L42480 32070
L42460 32000
L42460 31900
L42480 31830
L42490 31790
L42510 31770
L42550 31750
" />
<path d="M42930 31750
L42970 31750
L43010 31770
L43030 31790
L43050 31830
L43060 31900
L43060 32000
L43050 32070
L43030 32110
L43010 32130
L42970 32150
L42930 32150
L42890 32130
L42870 32110
L42860 32070
L42840 32000
L42840 31900
L42860 31830
L42870 31790
L42890 31770
L42930 31750
" />
<path d="M43240 31880
L43240 32150
" />
<path d="M43240 31920
L43250 31900
L43290 31880
L43350 31880
L43390 31900
L43410 31940
L43410 32150
" />
</g>
<g style="fill:#000000; fill-opacity:0.0; 
stroke:#000000; stroke-width:0; stroke-opacity:1; 
stroke-linecap:round; stroke-linejoin:round;">
</g>
<g style="fill:#000000; fill-opacity:0.0; 
stroke:#000000; stroke-width:60; stroke-opacity:1; 
stroke-linecap:round; stroke-linejoin:round;">
<polyline fill="none;"
points="41500,33500
41500,34000
42000,34000
41500,34500
41000,34000
41500,34000
" /> 
<path d="M41500 33500
L41500 33000
" />
<path d="M41500 29000
L41500 28000
" />
</g>
<g style="fill:#000000; fill-opacity:0.0; 
stroke:#000000; stroke-width:0; stroke-opacity:1; 
stroke-linecap:round; stroke-linejoin:round;">
</g>
<g style="fill:#000000; fill-opacity:1.0; 
stroke:#000000; stroke-width:100; stroke-opacity:1; 
stroke-linecap:round; stroke-linejoin:round;">
<circle cx="41500" cy="28000" r="200" /> 
</g> 
</svg>
